HIERARCHY
ROOT Hips
{
	OFFSET -3.958830 18.904000 13.208200
	CHANNELS 6 Xposition Yposition Zposition Zrotation Yrotation Xrotation 
	JOINT LHipJoint
	{
		OFFSET 0.000000 0.000000 0.000000
		CHANNELS 3 Zrotation Yrotation Xrotation
		JOINT LeftUpLeg
		{
			OFFSET 1.800000 -1.400000 0.085000
			CHANNELS 3 Zrotation Yrotation Xrotation
			JOINT LeftLeg
			{
				OFFSET 2.215000 -6.000000 0.000000
				CHANNELS 3 Zrotation Yrotation Xrotation
				JOINT LeftFoot
				{
					OFFSET 2.500000 -6.900000 0.000000
					CHANNELS 3 Zrotation Yrotation Xrotation
					JOINT LeftToeBase
					{
						OFFSET 0.200000 -0.500000 1.950000
						CHANNELS 3 Zrotation Yrotation Xrotation
						End Site
						{
							OFFSET 0.000000 0.000000 0.000000
						}
					}
				}
			}
		}
	}
	JOINT RHipJoint
	{
		OFFSET 0.000000 0.000000 0.000000
		CHANNELS 3 Zrotation Yrotation Xrotation
		JOINT RightUpLeg
		{
			OFFSET -1.800000 -1.400000 0.085000
			CHANNELS 3 Zrotation Yrotation Xrotation
			JOINT RightLeg
			{
				OFFSET -2.215000 -6.000000 0.000000
				CHANNELS 3 Zrotation Yrotation Xrotation
				JOINT RightFoot
				{
					OFFSET -2.500000 -6.900000 0.000000
					CHANNELS 3 Zrotation Yrotation Xrotation
					JOINT RightToeBase
					{
						OFFSET -0.200000 -0.500000 1.950000
						CHANNELS 3 Zrotation Yrotation Xrotation
						End Site
						{
							OFFSET 0.000000 0.000000 0.000000
						}
					}
				}
			}
		}
	}
	JOINT LowerBack
	{
		OFFSET 0.000000 0.000000 0.000000
		CHANNELS 3 Zrotation Yrotation Xrotation
		JOINT Spine
		{
			OFFSET -0.087000 1.940000 -0.288900
			CHANNELS 3 Zrotation Yrotation Xrotation
			JOINT Spine1
			{
				OFFSET 0.000000 1.950000 0.060000
				CHANNELS 3 Zrotation Yrotation Xrotation
				JOINT Neck
				{
					OFFSET 0.000000 0.000000 0.000000
					CHANNELS 3 Zrotation Yrotation Xrotation
					JOINT Neck1
					{
						OFFSET 0.000000 1.600000 0.340000
						CHANNELS 3 Zrotation Yrotation Xrotation
						JOINT Head
						{
							OFFSET 0.000000 1.667000 -0.240000
							CHANNELS 3 Zrotation Yrotation Xrotation
							End Site
							{
								OFFSET 0.000000 0.000000 0.000000
							}
						}
					}
				}
				JOINT LeftShoulder
				{
					OFFSET 0.000000 0.000000 0.000000
					CHANNELS 3 Zrotation Yrotation Xrotation
					JOINT LeftArm
					{
						OFFSET 2.700000 1.550000 -0.730000
						CHANNELS 3 Zrotation Yrotation Xrotation
						JOINT LeftForeArm
						{
							OFFSET 5.450000 0.000000 0.000000
							CHANNELS 3 Zrotation Yrotation Xrotation
							JOINT LeftHand
							{
								OFFSET 3.450000 0.000000 0.000000
								CHANNELS 3 Zrotation Yrotation Xrotation
								JOINT LeftHandIndex1
								{
									OFFSET 0.750000 0.000000 0.000000
									CHANNELS 3 Zrotation Yrotation Xrotation
									End Site
									{
										OFFSET 0.000000 0.000000 0.000000
									}
								}
							}
						}
					}
				}
				JOINT RightShoulder
				{
					OFFSET 0.000000 0.000000 0.000000
					CHANNELS 3 Zrotation Yrotation Xrotation
					JOINT RightArm
					{
						OFFSET -2.700000 1.550000 -0.730000
						CHANNELS 3 Zrotation Yrotation Xrotation
						JOINT RightForeArm
						{
							OFFSET -5.450000 0.000000 0.000000
							CHANNELS 3 Zrotation Yrotation Xrotation
							JOINT RightHand
							{
								OFFSET -3.450000 0.000000 0.000000
								CHANNELS 3 Zrotation Yrotation Xrotation
								JOINT RightHandIndex1
								{
									OFFSET -0.750000 0.000000 0.000000
									CHANNELS 3 Zrotation Yrotation Xrotation
									End Site
									{
										OFFSET 0.000000 0.000000 0.000000
									}
								}
							}
						}
					}
				}
			}
		}
	}
}
MOTION
Frames: 6
Frame Time: 0.016667
-0.257350 15.558760 -4.003560 -7.140162 12.503365 -6.815718 -15.585197 9.753764 5.670574 19.873685 -7.505835 -53.166453 5.046238 15.455151 79.110549 0.795592 15.269097 -0.358181 -0.234130 -0.323220 -0.431780 18.691803 -7.899353 3.724194 -5.382090 13.696116 -40.200469 -5.302244 -14.717695 86.493836 -2.281305 -14.198002 -0.103383 0.261270 1.472670 0.433080 -3.525377 -1.313812 -9.736632 7.532844 -1.994140 49.757693 -7.936285 4.712098 12.199986 3.112901 1.101479 -1.456370 0.149169 0.466078 35.607780 -8.693040 3.466240 -2.831300 16.217431 -12.664231 -9.768611 19.559969 -49.703424 -9.677870 34.568321 -49.515552 -15.087460 -4.759141 2.562366 0.241260 1.023500 -0.484530 0.309790 -22.959848 13.307197 0.938494 -5.379796 24.631272 -5.609022 -21.570522 54.163392 -8.853305 1.171452 -1.534555 -0.778870 0.917190 0.651530 0.058150 
-0.236900 15.524200 -4.053290 -5.608986 6.977127 -7.723027 -15.688730 10.226994 5.386754 18.142427 -7.458244 -51.065446 7.815690 13.987643 81.509723 0.774295 15.422109 -0.446008 0.033950 0.040860 -0.312920 18.558027 -7.879840 3.677097 -4.506050 14.079960 -38.402194 -6.035127 -12.551678 85.085057 -2.170920 -13.980173 -0.178113 0.576830 1.489070 0.525110 -3.231758 -1.911456 -9.479611 4.521733 0.822481 50.211660 -3.319604 5.828369 12.801677 1.888251 1.422978 1.841171 1.642120 1.975579 31.098628 -8.602160 4.239720 -2.027660 21.299474 -11.463812 -12.417393 23.099681 -57.669296 -8.506304 17.416622 -21.678291 -4.010141 -4.876473 3.142841 0.012060 1.154900 -0.546270 0.377560 -25.429967 14.239613 -2.794216 -8.381775 39.996511 0.217698 -19.784758 21.754183 -4.997597 1.499277 -1.800709 -0.695710 0.830120 0.527520 0.092000 
-0.195620 15.517720 -4.022940 -4.480981 1.103816 -7.178094 -15.697539 10.191616 5.358208 19.754730 -6.266991 -50.086936 6.938498 16.392650 83.233396 0.836410 16.006492 -0.655017 0.037450 -0.031160 -0.310050 18.558270 -7.903404 3.674283 -5.457103 14.536687 -38.575569 -7.063395 -10.842620 84.550353 -2.072020 -13.742633 -0.206818 0.568140 1.470960 0.554170 -3.293473 -1.726806 -9.433111 4.496006 2.421628 47.685229 -0.629554 6.517401 15.467824 0.305817 1.326513 1.113410 1.728226 2.545837 31.851565 -7.525640 3.139330 -1.512330 22.337262 -15.752684 -11.116818 24.060893 -53.413069 -5.766348 12.074286 -7.325702 -2.357991 -5.018513 3.057490 0.046060 1.123930 -0.589540 0.327370 -23.264546 19.564936 -3.953836 -11.350035 43.886870 -4.888115 -25.853190 10.541686 -6.168002 1.743290 -1.879928 -0.708410 0.769170 0.589720 0.056730 
-0.153810 15.492070 -3.948380 -3.273352 -2.270671 -5.130058 -15.651620 9.672898 5.655700 22.225159 -5.714736 -51.414378 4.308423 20.240780 84.608143 0.911102 16.743511 -0.908508 0.066680 -0.073340 -0.220550 18.654819 -7.917028 3.650301 -9.733801 13.758655 -41.385730 -6.491468 -11.815309 84.475691 -2.056849 -13.751910 -0.304814 0.561120 1.388810 0.547500 -3.570248 -1.026247 -9.580713 6.522652 2.382503 43.541552 -0.666125 5.940719 16.249315 -0.051192 1.664877 0.322942 2.593549 2.854823 32.730936 -7.097440 2.850300 -2.789040 21.443830 -17.821427 -9.724310 21.511341 -51.228055 -3.637071 12.989365 -2.768179 -2.779681 -5.080050 2.925326 0.161000 1.036710 -0.555530 0.272190 -21.215375 20.899237 -4.233510 -5.395570 45.398221 -6.039279 -36.462490 16.845284 -10.427324 1.676509 -1.884063 -0.744580 0.758130 0.613340 -0.013750 
-0.095950 15.490530 -3.834930 -2.639908 -5.160366 -4.012011 -15.532858 9.259881 5.714800 24.113470 -5.289138 -51.118858 3.356213 22.144990 85.333107 1.039321 17.138312 -0.984989 -0.058150 -0.302970 -0.220620 18.789654 -8.012999 3.765804 -15.704778 12.156648 -44.127603 -2.958833 -16.135223 84.045619 -2.088188 -14.094647 -0.424512 0.394260 1.358940 0.557480 -4.013158 -0.216576 -9.727290 10.309672 1.243115 39.430125 -2.580000 4.912516 16.834472 0.192151 1.427403 -1.577666 2.234668 2.485278 35.341061 -7.861350 2.627450 -2.184540 19.606677 -19.505260 -7.076334 17.176466 -47.450965 -1.489266 16.449241 -5.059585 -3.266905 -5.091857 2.781920 0.267860 0.984800 -0.536200 0.209740 -19.601354 21.424288 -2.867221 2.173560 43.314521 -5.798377 -47.496984 32.143340 -18.445222 1.490065 -1.635224 -0.779710 0.723570 0.676360 -0.062190 
-0.070460 15.492320 -3.691520 -1.900535 -8.477559 -3.499235 -15.592672 9.168512 5.688225 26.749543 -4.805496 -49.590538 2.810585 23.854641 86.095288 1.251877 17.421942 -0.996054 -0.211460 -0.537870 -0.287600 18.762141 -7.719909 4.014205 -21.766534 9.826368 -46.610927 1.764656 -21.618946 83.087553 -2.175101 -14.625225 -0.532022 0.190560 1.337630 0.529950 -3.974716 -0.453646 -9.909585 10.742305 1.526276 36.017626 -1.666089 4.321615 16.285257 0.096583 1.612760 -3.580966 2.118900 2.042636 39.225353 -7.394000 2.190370 -0.531580 16.064316 -19.377955 -4.413377 13.590259 -43.971122 0.373555 16.029134 -8.702511 -3.033871 -4.958701 2.678818 0.352950 0.911910 -0.522320 0.174670 -15.881907 20.842012 -0.774356 7.611726 40.167087 -6.043698 -61.526185 52.186017 -32.823510 1.188726 -0.901596 -0.792960 0.689020 0.723010 -0.068990 
